<svg width="1920" height="3344" viewBox="0 0 1920 3344" fill="none" xmlns="http://www.w3.org/2000/svg">
<mask id="mask0_12_29" style="mask-type:alpha" maskUnits="userSpaceOnUse" x="0" y="0" width="1920" height="3344">
<path d="M0 3343.16V0H1920V3343.16H0Z" fill="url(#paint0_linear_12_29)"/>
</mask>
<g mask="url(#mask0_12_29)">
<path d="M69.3351 3122.83C60.7986 2864.73 84.0247 2914.68 146.747 2739.52C211.658 2558.26 107.795 2533.42 76.2266 2407.2C37.21 2251.17 307.774 2241.16 235.739 2138.47C208.95 2100.28 189.947 2095.35 173.548 2040.44C166.423 2016.62 172.835 1951.29 113.482 1891.11C54.3348 1831.14 -53.4661 1821.65 -117.678 1894.73C-160.697 1943.7 -176.785 1989.06 -230.945 1994.06C-310.973 2001.43 -433.826 1985.58 -438.736 2086.09C-444.202 2198.05 -321.077 2278.46 -411.662 2374.72C-500.603 2469.22 -629.993 2510.04 -679.696 2657.9C-720.482 2779.24 -634.06 2842.41 -528.207 2913.15C-464.319 2955.84 -450.899 3008.43 -438.788 3081.05C-422.323 3179.72 -359.575 3272.67 -295.416 3323.66C-212.823 3389.32 -82.1974 3367.03 0.240035 3299.27C53.6482 3255.37 71.5891 3190.93 69.3351 3122.83Z" fill="#E74C3C" fill-opacity="0.33"/>
<path d="M-101.131 2807.85C-57.9761 2507.42 -42.8932 2570.02 60.8246 2380.25C168.156 2183.9 60.3874 2133.71 51.7404 1981.15C41.0448 1792.55 336.999 1836.76 279.607 1703.07C258.263 1653.34 238.623 1643.72 231.959 1576.81C229.062 1547.77 249.299 1473.49 197.047 1391.6C144.984 1310.01 29.7971 1276.77 -54.7925 1348.1C-111.478 1395.9 -138.166 1445.08 -198.023 1439.68C-286.448 1431.71 -416.678 1388.02 -442.431 1503.32C-471.113 1631.74 -353.703 1750.21 -471.651 1842.9C-587.47 1933.91 -736.317 1954.47 -820.342 2115.32C-889.297 2247.33 -808.255 2338.26 -707.641 2441.95C-646.917 2504.53 -643.02 2568.15 -644.612 2654.68C-646.768 2772.26 -597.487 2892.76 -538.16 2965.02C-461.781 3058.02 -315.359 3059.18 -212.038 2997.76C-145.112 2958 -112.519 2887.14 -101.131 2807.85Z" fill="#FFEB5C" fill-opacity="0.85"/>
<path d="M2358.87 961.849C2402.02 661.421 2417.11 724.016 2520.82 534.253C2628.16 337.896 2520.39 287.714 2511.74 135.148C2501.04 -53.4548 2797 -9.23983 2739.61 -142.929C2718.26 -192.661 2698.62 -202.282 2691.96 -269.194C2689.06 -298.235 2709.3 -372.513 2657.05 -454.4C2604.98 -535.993 2489.8 -569.226 2405.21 -497.897C2348.52 -450.096 2321.83 -400.924 2261.98 -406.318C2173.55 -414.292 2043.32 -457.978 2017.57 -342.675C1988.89 -214.259 2106.3 -95.7922 1988.35 -3.09912C1872.53 87.9129 1723.68 108.475 1639.66 269.322C1570.7 401.326 1651.75 492.264 1752.36 595.954C1813.08 658.534 1816.98 722.154 1815.39 808.682C1813.23 926.265 1862.51 1046.76 1921.84 1119.02C1998.22 1212.02 2144.64 1213.18 2247.96 1151.76C2314.89 1112 2347.48 1041.14 2358.87 961.849Z" fill="#FFEB5C" fill-opacity="0.85"/>
<path d="M-952.267 -36.6027C-966.473 350.231 -995.369 273.202 -1105.5 528.825C-1219.48 793.356 -1069.72 840.968 -1036.5 1032.88C-995.419 1270.14 -1393.31 1257.9 -1298.29 1418.71C-1262.94 1478.53 -1235.59 1487.82 -1217.22 1571.57C-1209.24 1607.91 -1225.41 1704.97 -1144.58 1800.94C-1064.05 1896.56 -906.904 1921.63 -805.173 1818.8C-737.001 1749.89 -708.703 1683.67 -628.739 1681.65C-510.604 1678.68 -332.06 1714.75 -314.448 1564.94C-294.842 1398.07 -467.095 1265.4 -324.271 1130.59C-184.026 998.228 9.98217 950.196 98.1929 734.079C170.584 556.729 50.3643 453.55 -97.5558 337.118C-186.834 266.849 -201.078 186.859 -211.32 77.047C-225.259 -72.1692 -307.663 -217.482 -396.484 -300.203C-510.82 -406.693 -704.726 -386.513 -832.658 -293.475C-915.519 -233.224 -948.519 -138.668 -952.267 -36.6027Z" fill="url(#paint1_linear_12_29)"/>
<path d="M1736.3 1375.41C1882.54 1721.69 1825.48 1665.76 1833.41 1935.96C1841.62 2215.58 1993.02 2195.99 2101.04 2351.25C2234.59 2543.19 1879.2 2695.8 2028.87 2798.31C2084.54 2836.45 2112.44 2833.38 2162.99 2899.55C2184.92 2928.26 2210.51 3020.32 2321.07 3071.6C2431.24 3122.69 2579.89 3080.22 2627.27 2947.94C2659.02 2859.31 2656.76 2789.41 2726.34 2754.8C2829.15 2703.68 3001.16 2662.1 2955.18 2523.02C2903.98 2368.12 2697.85 2322.1 2768.29 2144.8C2837.45 1970.71 2988.57 1848.78 2977.55 1622.36C2968.5 1436.55 2820.31 1395.11 2642.27 1353.38C2534.82 1328.19 2489.44 1263.63 2435.36 1171.19C2361.85 1045.59 2229.65 951.538 2117.49 915.203C1973.12 868.417 1810.67 965.791 1736.2 1100.21C1687.96 1187.27 1697.71 1284.04 1736.3 1375.41Z" fill="url(#paint2_linear_12_29)"/>
<path d="M2222.11 2285.69C2234.15 2617.47 2258.66 2551.4 2352.05 2770.66C2448.7 2997.56 2321.71 3038.39 2293.54 3203C2258.7 3406.5 2596.1 3396 2515.52 3533.93C2485.55 3585.24 2462.36 3593.2 2446.78 3665.04C2440.01 3696.21 2453.73 3779.45 2385.19 3861.77C2316.9 3943.79 2183.65 3965.29 2097.38 3877.08C2039.57 3817.98 2015.58 3761.18 1947.77 3759.45C1847.59 3756.9 1696.19 3787.83 1681.26 3659.34C1664.63 3516.22 1810.71 3402.44 1689.59 3286.8C1570.67 3173.27 1406.16 3132.07 1331.36 2946.71C1269.98 2794.59 1371.92 2706.1 1497.35 2606.23C1573.06 2545.96 1585.14 2477.34 1593.83 2383.16C1605.64 2255.17 1675.52 2130.54 1750.83 2059.59C1847.77 1968.24 2012.19 1985.55 2120.68 2065.35C2190.95 2117.04 2218.93 2198.14 2222.11 2285.69Z" fill="url(#paint3_linear_12_29)"/>
<path d="M2212.11 -103.31C2224.15 228.473 2248.66 162.404 2342.05 381.661C2438.7 608.556 2311.71 649.388 2283.54 813.997C2248.7 1017.5 2586.1 1007 2505.52 1144.93C2475.55 1196.24 2452.36 1204.2 2436.78 1276.04C2430.01 1307.21 2443.73 1390.45 2375.19 1472.77C2306.9 1554.79 2173.65 1576.29 2087.38 1488.08C2029.57 1428.98 2005.58 1372.18 1937.77 1370.45C1837.59 1367.9 1686.19 1398.83 1671.26 1270.34C1654.63 1127.22 1800.71 1013.44 1679.59 897.802C1560.67 784.267 1396.16 743.066 1321.36 557.708C1259.98 405.591 1361.92 317.097 1487.35 217.23C1563.06 156.96 1575.14 88.3425 1583.83 -5.84257C1595.64 -133.826 1665.52 -258.463 1740.83 -329.414C1837.77 -420.757 2002.19 -403.449 2110.68 -323.648C2180.95 -271.959 2208.93 -190.858 2212.11 -103.31Z" fill="url(#paint4_linear_12_29)"/>
<path d="M52.311 2846.36C52.311 2762.44 75.5809 2679.68 98.1635 2599.32C120.176 2521.02 142.941 2440.06 144.28 2358.14C145.05 2311.59 138.936 2263.86 133.027 2217.7C122.972 2139.13 112.571 2057.9 136.48 1982.03C150.794 1936.6 176.823 1895.68 201.997 1856.13C229.272 1813.27 257.47 1768.93 270.549 1719.02C290.089 1644.43 274.079 1566.53 258.592 1491.19C248.483 1442.01 238.028 1391.16 237.19 1340.96C235.897 1263.91 260.03 1184.55 305.13 1117.43C350.232 1050.31 413.733 999.276 483.947 973.734L484.488 975.334C341.316 1027.43 238.774 1178 238.774 1334.94C238.774 1336.94 238.792 1338.93 238.828 1340.94C239.661 1390.98 250.098 1441.75 260.194 1490.84C275.718 1566.37 291.776 1644.47 272.13 1719.47C258.984 1769.66 230.71 1814.09 203.365 1857.07C178.252 1896.54 152.285 1937.35 138.037 1982.56C114.244 2058.08 124.617 2139.11 134.654 2217.5C140.568 2263.72 146.694 2311.48 145.925 2358.19C144.58 2440.32 121.786 2521.41 99.7433 2599.82C74.3475 2690.15 48.0882 2783.57 55.1067 2878.06L53.4738 2878.19C52.6811 2867.55 52.311 2856.94 52.311 2846.36Z" fill="white"/>
<path d="M764.719 2792.94C789.404 2792.94 809.413 2773.03 809.413 2748.46C809.413 2723.9 789.404 2703.99 764.719 2703.99C740.035 2703.99 720.024 2723.9 720.024 2748.46C720.024 2773.03 740.035 2792.94 764.719 2792.94Z" fill="#FFEB5C"/>
<path d="M849.19 1768.44C859.693 1745.92 886.468 1736.17 908.992 1746.68L1001.44 1789.78C1023.96 1800.29 1033.7 1827.06 1023.2 1849.58L977.981 1946.56C967.478 1969.08 940.704 1978.83 918.179 1968.32L825.736 1925.22C803.212 1914.71 793.467 1887.94 803.97 1865.42L849.19 1768.44Z" fill="#DE4343" fill-opacity="0.71"/>
<path d="M897.351 284.252C906.687 264.231 930.487 255.569 950.508 264.905V264.905C970.53 274.241 979.192 298.04 969.856 318.062V318.062C960.52 338.083 936.72 346.746 916.699 337.409V337.409C896.677 328.073 888.015 304.274 897.351 284.252V284.252Z" fill="#DE4343" fill-opacity="0.71"/>
<path d="M1004.35 380.252C1013.69 360.231 1037.49 351.569 1057.51 360.905V360.905C1077.53 370.241 1086.19 394.04 1076.86 414.062V414.062C1067.52 434.083 1043.72 442.746 1023.7 433.409V433.409C1003.68 424.073 995.015 400.274 1004.35 380.252V380.252Z" fill="#FFC222"/>
<path d="M1225.6 2158.93C1215.1 2136.4 1224.85 2109.63 1247.37 2099.12L1339.81 2056.02C1362.34 2045.51 1389.11 2055.26 1399.61 2077.78L1444.83 2174.76C1455.34 2197.28 1445.59 2224.06 1423.07 2234.56L1330.63 2277.67C1308.1 2288.17 1281.33 2278.43 1270.82 2255.9L1225.6 2158.93Z" fill="#FFEB5C" fill-opacity="0.71"/>
<path d="M481.357 886.867C467.353 856.834 480.346 821.136 510.378 807.131L544.207 791.357C574.239 777.352 609.938 790.346 623.942 820.378L639.069 852.818C653.074 882.85 640.08 918.549 610.048 932.553L576.22 948.328C546.187 962.332 510.488 949.339 496.484 919.306L481.357 886.867Z" fill="#DE4343" fill-opacity="0.67"/>
<path d="M939.597 2320.69C958.635 2304.71 987.019 2307.2 1002.99 2326.24L1068.56 2404.37C1084.53 2423.41 1082.05 2451.79 1063.01 2467.77L981.045 2536.55C962.007 2552.52 933.623 2550.04 917.648 2531L852.084 2452.86C836.108 2433.83 838.592 2405.44 857.63 2389.47L939.597 2320.69Z" fill="#DE4343" fill-opacity="0.71"/>
<path d="M1209.02 738.926C1198.51 716.402 1208.26 689.628 1230.78 679.125L1323.23 636.018C1345.75 625.514 1372.53 635.259 1383.03 657.784L1428.25 754.759C1438.75 777.283 1429.01 804.057 1406.48 814.56L1314.04 857.667C1291.52 868.171 1264.74 858.426 1254.24 835.901L1209.02 738.926Z" fill="#FFEB5C" fill-opacity="0.71"/>
<path d="M925.528 701.925C944.566 685.95 972.95 688.434 988.925 707.472L1007.43 729.52C1023.4 748.558 1020.92 776.942 1001.88 792.917L994.887 798.784C975.849 814.759 947.465 812.276 931.49 793.238L912.989 771.19C897.014 752.152 899.498 723.768 918.536 707.792L925.528 701.925Z" fill="#DE4343" fill-opacity="0.71"/>
<path d="M1115.72 2833.67C1115.72 2808.82 1135.86 2788.67 1160.72 2788.67H1262.72C1287.57 2788.67 1307.72 2808.82 1307.72 2833.67V2940.67C1307.72 2965.52 1287.57 2985.67 1262.72 2985.67H1160.72C1135.86 2985.67 1115.72 2965.52 1115.72 2940.67V2833.67Z" fill="#FFEB5C" fill-opacity="0.71"/>
<path d="M978.796 1366.26C978.796 1333.12 1005.66 1306.26 1038.8 1306.26H1076.12C1109.26 1306.26 1136.12 1333.12 1136.12 1366.26V1402.05C1136.12 1435.19 1109.26 1462.05 1076.12 1462.05H1038.8C1005.66 1462.05 978.796 1435.19 978.796 1402.05V1366.26Z" fill="#DE4343" fill-opacity="0.67"/>
</g>
<defs>
<linearGradient id="paint0_linear_12_29" x1="959.999" y1="0.00435018" x2="959.999" y2="3343.16" gradientUnits="userSpaceOnUse">
<stop stop-color="#CFF4E4"/>
<stop offset="1" stop-color="#F0E4C6"/>
</linearGradient>
<linearGradient id="paint1_linear_12_29" x1="41.9143" y1="824.055" x2="-1179.6" y2="824.055" gradientUnits="userSpaceOnUse">
<stop stop-color="#9B59B6" stop-opacity="0.52"/>
<stop offset="1" stop-color="#FEBE12" stop-opacity="0"/>
</linearGradient>
<linearGradient id="paint2_linear_12_29" x1="2102.87" y1="2365.9" x2="2811.01" y2="2035.69" gradientUnits="userSpaceOnUse">
<stop stop-color="#1245FA" stop-opacity="0.65"/>
<stop offset="1" stop-color="#FEBE12" stop-opacity="0"/>
</linearGradient>
<linearGradient id="paint3_linear_12_29" x1="2297.5" y1="3215.41" x2="1615.55" y2="3215.41" gradientUnits="userSpaceOnUse">
<stop stop-color="#E74C3C"/>
<stop offset="1" stop-color="#FEBE12" stop-opacity="0"/>
</linearGradient>
<linearGradient id="paint4_linear_12_29" x1="2287.5" y1="826.41" x2="1605.55" y2="826.41" gradientUnits="userSpaceOnUse">
<stop stop-color="#E74C3C"/>
<stop offset="1" stop-color="#FEBE12" stop-opacity="0"/>
</linearGradient>
</defs>
</svg>
