<svg width="417" height="857" viewBox="0 0 417 857" fill="none" xmlns="http://www.w3.org/2000/svg">
<path d="M443.363 929.598C625.044 929.598 450.143 682.318 450.143 497.33C450.143 312.342 639.757 29 458.076 29C276.396 29 29 277.988 29 462.976C29 647.964 261.683 929.598 443.363 929.598Z" fill="#FFD463"/>
<path d="M701.627 709.927C837.61 589.443 542.714 520.349 420.037 381.891C297.359 243.432 251.378 -94.3873 115.395 26.0967C-20.5881 146.581 -40.6375 497.006 82.0401 635.465C204.718 773.923 565.644 830.411 701.627 709.927Z" fill="#FE5499"/>
<path d="M449.733 590.543C423.168 628.314 403.283 675.562 386.074 723.593C378.769 743.98 371.943 764.521 365.293 784.532C356.289 811.628 347.607 837.752 338.497 861.209C330.573 881.613 322.313 900.036 313.213 915.373C304.115 930.707 294.162 942.984 282.841 951.071C271.508 959.167 258.814 963.054 244.276 961.616C229.753 960.179 213.43 953.432 194.813 940.338C157.559 914.136 127.878 871.685 105.969 820.427C84.057 769.163 69.903 709.057 63.7247 647.5C51.3707 524.412 70.8952 395.386 124.205 319.589C177.527 243.777 290.687 190.577 409.02 169.385C527.351 148.192 651.064 158.968 725.527 211.34C744.151 224.44 755.517 237.859 760.88 251.634C766.249 265.421 765.583 279.506 760.255 293.88C749.617 322.582 720.359 352.519 683.239 383.837C662.372 401.444 638.964 419.53 614.93 438.1C596.214 452.561 577.118 467.316 558.545 482.366C516.086 516.774 476.297 552.776 449.733 590.543Z" stroke="#EEEEEE"/>
</svg>
