<svg width="1920" height="3344" viewBox="0 0 1920 3344" fill="none" xmlns="http://www.w3.org/2000/svg">
<mask id="mask0_5_570" style="mask-type:alpha" maskUnits="userSpaceOnUse" x="0" y="0" width="1920" height="3344">
<path d="M0 3343.16V0H1920V3343.16H0Z" fill="url(#paint0_linear_5_570)"/>
</mask>
<g mask="url(#mask0_5_570)">
<path d="M69.3351 3122.83C60.7986 2864.73 84.0247 2914.68 146.747 2739.52C211.658 2558.26 107.795 2533.42 76.2266 2407.2C37.21 2251.17 307.774 2241.16 235.739 2138.47C208.95 2100.28 189.947 2095.35 173.548 2040.44C166.423 2016.62 172.835 1951.29 113.482 1891.11C54.3348 1831.14 -53.4661 1821.65 -117.678 1894.73C-160.697 1943.7 -176.785 1989.06 -230.945 1994.06C-310.973 2001.43 -433.826 1985.58 -438.736 2086.09C-444.202 2198.05 -321.077 2278.46 -411.662 2374.72C-500.603 2469.22 -629.993 2510.04 -679.696 2657.9C-720.482 2779.24 -634.06 2842.41 -528.207 2913.15C-464.319 2955.84 -450.899 3008.43 -438.788 3081.05C-422.323 3179.72 -359.575 3272.67 -295.416 3323.66C-212.823 3389.32 -82.1974 3367.03 0.240035 3299.27C53.6482 3255.37 71.5891 3190.93 69.3351 3122.83Z" fill="#E74C3C"/>
<path d="M-101.131 2807.85C-57.9761 2507.42 -42.8932 2570.02 60.8246 2380.25C168.156 2183.9 60.3874 2133.71 51.7404 1981.15C41.0448 1792.55 336.999 1836.76 279.607 1703.07C258.263 1653.34 238.623 1643.72 231.959 1576.81C229.062 1547.77 249.299 1473.49 197.047 1391.6C144.984 1310.01 29.7971 1276.77 -54.7925 1348.1C-111.478 1395.9 -138.166 1445.08 -198.023 1439.68C-286.448 1431.71 -416.678 1388.02 -442.431 1503.32C-471.113 1631.74 -353.703 1750.21 -471.651 1842.9C-587.47 1933.91 -736.317 1954.47 -820.342 2115.32C-889.297 2247.33 -808.255 2338.26 -707.641 2441.95C-646.917 2504.53 -643.02 2568.15 -644.612 2654.68C-646.768 2772.26 -597.487 2892.76 -538.16 2965.02C-461.781 3058.02 -315.359 3059.18 -212.038 2997.76C-145.112 2958 -112.519 2887.14 -101.131 2807.85Z" fill="#FFEB5C"/>
<path d="M-522.267 206.397C-536.473 593.231 -565.369 516.202 -675.499 771.825C-789.479 1036.36 -639.716 1083.97 -606.5 1275.88C-565.419 1513.14 -963.308 1500.9 -868.286 1661.71C-832.936 1721.53 -805.591 1730.82 -787.217 1814.57C-779.237 1850.91 -795.413 1947.97 -714.585 2043.94C-634.049 2139.56 -476.904 2164.63 -375.173 2061.8C-307.001 1992.89 -278.703 1926.67 -198.739 1924.65C-80.6036 1921.68 97.94 1957.75 115.552 1807.94C135.158 1641.07 -37.0955 1508.4 105.729 1373.59C245.974 1241.23 439.982 1193.2 528.193 977.079C600.584 799.729 480.364 696.55 332.444 580.118C243.166 509.849 228.922 429.859 218.68 320.047C204.741 170.831 122.337 25.5182 33.5164 -57.2032C-80.8196 -163.693 -274.726 -143.513 -402.658 -50.4749C-485.519 9.7758 -518.519 104.332 -522.267 206.397Z" fill="url(#paint1_linear_5_570)"/>
<path d="M1631.48 1129.72C1617.68 1505.35 1589.61 1430.55 1482.6 1678.79C1371.86 1935.68 1517.36 1981.91 1549.64 2168.27C1589.56 2398.67 1202.98 2386.79 1295.29 2542.95C1329.64 2601.04 1356.21 2610.05 1374.06 2691.39C1381.81 2726.67 1366.1 2820.92 1444.62 2914.12C1522.88 3006.99 1675.55 3031.32 1774.39 2931.46C1840.63 2864.54 1868.12 2800.23 1945.81 2798.28C2060.59 2795.39 2234.06 2830.41 2251.17 2684.93C2270.22 2522.89 2102.85 2394.07 2241.63 2263.15C2377.88 2134.61 2566.37 2087.96 2652.07 1878.11C2722.4 1705.88 2605.6 1605.69 2461.88 1492.63C2375.15 1424.39 2361.3 1346.7 2351.35 1240.07C2337.81 1095.17 2257.75 954.056 2171.45 873.726C2060.38 770.31 1872 789.906 1747.7 880.254C1667.18 938.776 1635.12 1030.6 1631.48 1129.72Z" fill="url(#paint2_linear_5_570)"/>
<path d="M2151.11 1834.69C2163.15 2166.47 2187.66 2100.4 2281.05 2319.66C2377.7 2546.56 2250.71 2587.39 2222.54 2752C2187.7 2955.5 2525.1 2945 2444.52 3082.93C2414.55 3134.24 2391.36 3142.2 2375.78 3214.04C2369.01 3245.21 2382.73 3328.45 2314.19 3410.77C2245.9 3492.79 2112.65 3514.29 2026.38 3426.08C1968.57 3366.98 1944.58 3310.18 1876.77 3308.45C1776.59 3305.9 1625.19 3336.83 1610.26 3208.34C1593.63 3065.22 1739.71 2951.44 1618.59 2835.8C1499.67 2722.27 1335.16 2681.07 1260.36 2495.71C1198.98 2343.59 1300.92 2255.1 1426.35 2155.23C1502.06 2094.96 1514.14 2026.34 1522.83 1932.16C1534.64 1804.17 1604.52 1679.54 1679.83 1608.59C1776.77 1517.24 1941.19 1534.55 2049.68 1614.35C2119.95 1666.04 2147.93 1747.14 2151.11 1834.69Z" fill="url(#paint3_linear_5_570)"/>
<path d="M52.311 2846.36C52.311 2762.44 75.5809 2679.68 98.1635 2599.32C120.176 2521.02 142.941 2440.06 144.28 2358.14C145.05 2311.59 138.936 2263.86 133.027 2217.7C122.972 2139.13 112.571 2057.9 136.48 1982.03C150.794 1936.6 176.823 1895.68 201.997 1856.13C229.272 1813.27 257.47 1768.93 270.549 1719.02C290.089 1644.43 274.079 1566.53 258.592 1491.19C248.483 1442.01 238.028 1391.16 237.19 1340.96C235.897 1263.91 260.03 1184.55 305.13 1117.43C350.232 1050.31 413.733 999.276 483.947 973.734L484.488 975.334C341.316 1027.43 238.774 1178 238.774 1334.94C238.774 1336.94 238.792 1338.93 238.828 1340.94C239.661 1390.98 250.098 1441.75 260.194 1490.84C275.718 1566.37 291.776 1644.47 272.13 1719.47C258.984 1769.66 230.71 1814.09 203.365 1857.07C178.252 1896.54 152.285 1937.35 138.037 1982.56C114.244 2058.08 124.617 2139.11 134.654 2217.5C140.568 2263.72 146.694 2311.48 145.925 2358.19C144.58 2440.32 121.786 2521.41 99.7433 2599.82C74.3475 2690.15 48.0882 2783.57 55.1067 2878.06L53.4738 2878.19C52.6811 2867.55 52.311 2856.94 52.311 2846.36Z" fill="white"/>
<path d="M764.719 2792.94C789.404 2792.94 809.413 2773.03 809.413 2748.46C809.413 2723.9 789.404 2703.99 764.719 2703.99C740.035 2703.99 720.024 2723.9 720.024 2748.46C720.024 2773.03 740.035 2792.94 764.719 2792.94Z" fill="#FFEB5C"/>
</g>
<path d="M603.604 1832.44C614.108 1809.92 640.882 1800.17 663.406 1810.68L755.85 1853.78C778.374 1864.29 788.119 1891.06 777.616 1913.58L732.395 2010.56C721.892 2033.08 695.118 2042.83 672.594 2032.32L580.15 1989.22C557.626 1978.71 547.881 1951.94 558.384 1929.42L603.604 1832.44Z" fill="#DE4343" fill-opacity="0.71"/>
<path d="M980.018 2222.93C969.515 2200.4 979.26 2173.63 1001.78 2163.12L1094.23 2120.02C1116.75 2109.51 1143.53 2119.26 1154.03 2141.78L1199.25 2238.76C1209.75 2261.28 1200.01 2288.06 1177.48 2298.56L1085.04 2341.67C1062.52 2352.17 1035.74 2342.43 1025.24 2319.9L980.018 2222.93Z" fill="#FFEB5C" fill-opacity="0.71"/>
<path d="M235.772 950.867C221.767 920.835 234.761 885.136 264.793 871.132L298.621 855.357C328.654 841.353 364.353 854.346 378.357 884.379L393.484 916.818C407.488 946.851 394.495 982.55 364.462 996.554L330.634 1012.33C300.602 1026.33 264.903 1013.34 250.899 983.307L235.772 950.867Z" fill="#DE4343" fill-opacity="0.67"/>
<defs>
<linearGradient id="paint0_linear_5_570" x1="959.999" y1="0.00435018" x2="959.999" y2="3343.16" gradientUnits="userSpaceOnUse">
<stop stop-color="#CFF4E4"/>
<stop offset="1" stop-color="#F0E4C6"/>
</linearGradient>
<linearGradient id="paint1_linear_5_570" x1="471.914" y1="1067.06" x2="-749.605" y2="1067.06" gradientUnits="userSpaceOnUse">
<stop stop-color="#9B59B6"/>
<stop offset="1" stop-color="#FEBE12" stop-opacity="0"/>
</linearGradient>
<linearGradient id="paint2_linear_5_570" x1="1545.11" y1="2182.33" x2="2326.45" y2="2182.33" gradientUnits="userSpaceOnUse">
<stop stop-color="#E74C3C"/>
<stop offset="1" stop-color="#FEBE12" stop-opacity="0"/>
</linearGradient>
<linearGradient id="paint3_linear_5_570" x1="2226.5" y1="2764.41" x2="1544.55" y2="2764.41" gradientUnits="userSpaceOnUse">
<stop stop-color="#E74C3C"/>
<stop offset="1" stop-color="#FEBE12" stop-opacity="0"/>
</linearGradient>
</defs>
</svg>
