<svg width="691" height="561" viewBox="0 0 691 561" fill="none" xmlns="http://www.w3.org/2000/svg">
<path d="M501.002 -373.381C677.779 -331.457 450.536 -131.211 407.848 48.7841C365.16 228.78 484.273 548.23 307.496 506.305C130.719 464.38 -52.5433 165.023 -9.85532 -14.9724C32.8327 -194.968 324.226 -415.306 501.002 -373.381Z" fill="#FFC871"/>
<path d="M657.661 -110.854C787.716 16.0054 492.937 67.7279 366.077 197.783C239.217 327.838 180.643 659.44 50.5882 532.58C-79.4668 405.72 -85.8151 57.9238 41.0447 -72.1312C167.905 -202.186 527.606 -237.714 657.661 -110.854Z" fill="#6F96D5"/>
<path d="M319.854 188.888C356.305 162.15 402.318 141.897 449.269 124.263C469.149 116.796 489.237 109.787 508.82 102.953C535.369 93.6884 560.993 84.747 583.919 75.4277C603.879 67.3143 621.906 58.8738 636.872 49.6157C651.83 40.3624 663.811 30.2431 671.593 18.7376C679.401 7.19401 682.953 -5.7074 681.09 -20.3942C679.232 -35.0353 672.008 -51.3372 658.488 -69.7697C631.407 -106.69 588.451 -135.8 537.088 -157.037C485.712 -178.28 425.825 -191.688 364.75 -197.142C242.683 -208.044 115.461 -187.199 41.7875 -133.16C-31.9339 -79.0851 -81.3706 34.2873 -98.9887 152.222C-116.607 270.158 -102.501 393.29 -48.431 467.005C-34.8957 485.458 -21.175 496.759 -7.1721 502.025C6.86844 507.305 21.0251 506.455 35.27 500.923C63.6115 489.919 92.5157 460.294 122.402 423.069C139.209 402.134 156.452 378.625 174.143 354.505C187.905 335.742 201.937 316.609 216.246 298.033C249.034 255.465 283.41 215.619 319.854 188.888Z" stroke="white" stroke-width="3"/>
</svg>
